<mxfile host="drawio-plugin" modified="2022-06-19T11:07:40.789Z" agent="5.0 (Windows NT 6.2; Win64; x64) AppleWebKit/537.36 (KHTML, like Gecko) Chrome/97.0.4692.45 Safari/537.36" etag="PEts1KOz67UfcOo9Q1fo" version="15.5.4" type="embed"><diagram id="23iRSUPoRavnBvh4doch" name="Page-1"><mxGraphModel dx="784" dy="329" grid="1" gridSize="10" guides="1" tooltips="1" connect="1" arrows="1" fold="1" page="1" pageScale="1" pageWidth="827" pageHeight="1169" math="0" shadow="0"><root><mxCell id="0"/><mxCell id="1" parent="0"/><mxCell id="10" value="" style="edgeStyle=orthogonalEdgeStyle;rounded=0;orthogonalLoop=1;jettySize=auto;html=1;" edge="1" parent="1" source="2" target="9"><mxGeometry relative="1" as="geometry"/></mxCell><mxCell id="2" value="Utilisateur" style="shape=umlActor;verticalLabelPosition=bottom;verticalAlign=top;html=1;outlineConnect=0;" vertex="1" parent="1"><mxGeometry x="110" y="70" width="30" height="60" as="geometry"/></mxCell><mxCell id="5" style="edgeStyle=orthogonalEdgeStyle;rounded=0;orthogonalLoop=1;jettySize=auto;html=1;" edge="1" parent="1" source="3" target="6"><mxGeometry relative="1" as="geometry"><mxPoint x="430" y="340" as="targetPoint"/></mxGeometry></mxCell><mxCell id="3" value="&lt;br&gt;Séléctionne un type d'événement" style="ellipse;whiteSpace=wrap;html=1;verticalAlign=top;" vertex="1" parent="1"><mxGeometry x="500" y="60" width="140" height="80" as="geometry"/></mxCell><mxCell id="8" value="" style="edgeStyle=orthogonalEdgeStyle;rounded=0;orthogonalLoop=1;jettySize=auto;html=1;" edge="1" parent="1" source="6" target="7"><mxGeometry relative="1" as="geometry"/></mxCell><mxCell id="6" value="remplie les champs pour creer l'événement" style="ellipse;whiteSpace=wrap;html=1;" vertex="1" parent="1"><mxGeometry x="345" y="220" width="170" height="100" as="geometry"/></mxCell><mxCell id="7" value="Valide l'ajout de l'événement" style="ellipse;whiteSpace=wrap;html=1;" vertex="1" parent="1"><mxGeometry x="355" y="430" width="150" height="90" as="geometry"/></mxCell><mxCell id="11" style="edgeStyle=orthogonalEdgeStyle;rounded=0;orthogonalLoop=1;jettySize=auto;html=1;entryX=0;entryY=0.5;entryDx=0;entryDy=0;" edge="1" parent="1" source="9" target="3"><mxGeometry relative="1" as="geometry"/></mxCell><mxCell id="9" value="Creer un type d'événement" style="ellipse;whiteSpace=wrap;html=1;verticalAlign=top;" vertex="1" parent="1"><mxGeometry x="250" y="70" width="120" height="60" as="geometry"/></mxCell></root></mxGraphModel></diagram></mxfile>